<?xml version="1.0" standalone="no"?>
<!DOCTYPE svg PUBLIC "-//W3C//DTD SVG 1.1//EN" "http://www.w3.org/Graphics/SVG/1.1/DTD/svg11.dtd" >
<svg xmlns="http://www.w3.org/2000/svg">
<metadata>Generated by IcoMoon</metadata>
<defs>
<font id="karly" horiz-adv-x="1024">
<font-face units-per-em="1024" ascent="960" descent="-64" />
<missing-glyph horiz-adv-x="1024" />
<glyph unicode="&#x20;" horiz-adv-x="512" d="" />
<glyph unicode="&#xe900;" glyph-name="isChecked_true" d="M512-42.667c270.989 0 490.667 219.678 490.667 490.667s-219.678 490.667-490.667 490.667c-270.988 0-490.667-219.679-490.667-490.667 0-270.989 219.679-490.667 490.667-490.667z" />
<glyph unicode="&#xe902;" d="M1024 448c0-282.77-229.23-512-512-512s-512 229.23-512 512c0 282.77 229.23 512 512 512s512-229.23 512-512z" />
<glyph unicode="&#xe903;" d="M725.333 448c0-117.821-95.513-213.333-213.333-213.333s-213.333 95.513-213.333 213.333c0 117.821 95.513 213.333 213.333 213.333s213.333-95.513 213.333-213.333z" />
<glyph unicode="&#xe905;" glyph-name="point" d="M550.001 57.999l-16 288 241.999-157.999 84 146.001-256 129.999 256 132-84 146.001-241.999-158.001 16 288h-170.001l16-288-242 158.001-86-146.001 258.001-132-258.001-129.999 86-146.001 242 157.999-16-288h170.001z" />
<glyph unicode="&#xe906;" glyph-name="arrow_next" d="M550.743 448l-244.888-244.888-46.968 46.966 197.922 197.923-197.922 197.923 46.968 46.966 244.888-244.888zM787.243 448l-244.888-244.888-46.968 46.966 197.923 197.923-197.923 197.923 46.968 46.966 244.888-244.888z" />
<glyph unicode="&#xe907;" glyph-name="answer" d="M846.878 444.541c0 183.418-148.69 332.108-332.108 332.108s-332.108-148.69-332.108-332.108c0-183.418 148.69-332.108 332.108-332.108s332.108 148.69 332.108 332.108zM467.722 380.776l-14.945-38.857h-59.779l95.979 227.162h53.469l95.647-227.162h-59.447l-15.277 38.857h-95.647zM515.545 503.656l-29.226-75.056h58.451l-29.226 75.056z" />
<glyph unicode="&#xe908;" glyph-name="arrow_bottom" d="M517.53 312.45l-244.889 244.888 46.966 46.968 197.923-197.923 197.923 197.923 46.966-46.968-244.888-244.888z" />
<glyph unicode="&#xe909;" glyph-name="arrow_left" horiz-adv-x="996" d="M352.242 458.378l244.891 244.89 46.966-46.967-197.92-197.923 197.92-197.923-46.966-46.966-244.891 244.888z" />
<glyph unicode="&#xe90a;" glyph-name="arrow-left" horiz-adv-x="996" d="M352.242 441.081l244.891 244.89 46.966-46.967-197.92-197.923 197.92-197.923-46.966-46.966-244.891 244.888z" />
<glyph unicode="&#xe90b;" glyph-name="arrow_prev" d="M483.541 448l251.691 251.692 48.273-48.272-203.42-203.42 203.42-203.42-48.273-48.27-251.691 251.691zM240.472 448l251.691 251.692 48.273-48.272-203.42-203.42 203.42-203.42-48.273-48.27-251.691 251.691z" />
<glyph unicode="&#xe90c;" glyph-name="arrow_right" d="M669.001 458.378l-244.891-244.888-46.966 46.966 197.92 197.923-197.92 197.923 46.966 46.966 244.891-244.888z" />
<glyph unicode="&#xe90e;" glyph-name="arrow_top" d="M520.294 604.307l244.888-244.888-46.966-46.968-197.923 197.923-197.923-197.923-46.966 46.968 244.889 244.888z" />
<glyph unicode="&#xe90f;" glyph-name="bell" d="M517.53 815.395l-0.482-0.004-10.143-0.201c-147.998-5.778-264.952-131.207-264.952-283.559v-198.601l-18.739-26.234c-21.668-30.457-35.129-49.736-38.336-55.432-0.423-0.75-0.807-1.522-1.15-2.314l-0.405-0.935c-3.336-7.699-2.572-16.558 2.033-23.574 4.605-7.013 12.431-11.236 20.822-11.236h183.733c3.67-27.947 16.445-54.092 36.596-74.243 24.133-24.133 56.862-37.692 90.992-37.692s66.859 13.558 90.992 37.692c20.151 20.151 32.926 46.293 36.596 74.243h182.518c0.412-0.022 0.828-0.030 1.245-0.030 6.036 0 14.012 2.35 19.669 9.603 4.705 6.031 5.209 12.269 5.267 14.754 0.113 4.708-1.19 8.322-1.428 8.984l-0.025 0.064c-0.72 2.040-1.594 3.645-1.838 4.096v0l-0.017 0.030c-0.706 1.301-1.547 2.651-2.228 3.72-1.486 2.333-3.65 5.568-6.371 9.548l-48.803 68.932v198.626c0 155.965-122.612 283.765-275.547 283.765zM594.565 213.305h-154.131c3.185-14.665 10.522-28.24 21.299-39.017 14.79-14.79 34.849-23.101 55.766-23.101s40.977 8.311 55.766 23.101c10.777 10.777 18.114 24.352 21.299 39.017zM508.612 765.402l9.152 0.177c123.813-0.131 225.496-104.053 225.496-233.949v-206.552c0-5.156 1.6-10.185 4.578-14.391l33.679-47.566h-528.212c3.2 4.522 6.712 9.471 10.5 14.795l23.324 32.655c3.017 4.223 4.638 9.285 4.638 14.477v206.582c0 126.843 97.003 228.962 216.844 233.771z" />
<glyph unicode="&#xe910;" glyph-name="cancel" d="M711.259 621.958l-25.307 25.307-173.958-173.958-173.958 173.958-25.307-25.307 173.958-173.958-173.958-173.961 25.307-25.304 173.958 173.958 173.958-173.958 25.307 25.304-173.958 173.961 173.958 173.958z" />
<glyph unicode="&#xe911;" glyph-name="cart" d="M732.954 225.571c-19.719 0-35.702-15.985-35.702-35.702 0-19.719 15.983-35.702 35.702-35.702 19.716 0 35.702 15.983 35.702 35.702 0 19.716-15.985 35.702-35.702 35.702zM650.204 189.869c0 45.701 37.047 82.75 82.75 82.75 45.701 0 82.75-37.049 82.75-82.75 0-45.704-37.049-82.75-82.75-82.75-45.704 0-82.75 37.047-82.75 82.75zM436.548 225.571c-19.719 0-35.702-15.985-35.702-35.702 0-19.719 15.983-35.702 35.702-35.702 19.716 0 35.702 15.983 35.702 35.702 0 19.716-15.985 35.702-35.702 35.702zM353.798 189.869c0 45.701 37.049 82.75 82.75 82.75s82.75-37.049 82.75-82.75c0-45.704-37.049-82.75-82.75-82.75s-82.75 37.047-82.75 82.75zM270.219 788.493h-128.692v-47.049h110.049l38.338-163.374 56.207-239.967c2.494-10.639 11.981-18.161 22.904-18.161h431.464c10.918 0 20.403 7.514 22.902 18.141l75.278 320.208c1.644 6.996 0 14.359-4.461 19.992s-11.253 8.917-18.44 8.917h-563.134l-19.511 83.144c-2.496 10.633-11.981 18.15-22.902 18.15zM347.183 539.869l0.022 0.003-11.488 48.953-12.022 51.325h522.376l-64.216-273.159h-394.179l-40.492 172.879z" />
<glyph unicode="&#xe912;" glyph-name="heart" d="M621.557 760.563c24.554 10.176 50.873 15.413 77.453 15.413s52.897-5.238 77.453-15.413c24.554-10.176 46.863-25.090 65.649-43.891l6.886-6.889v-0.369c15.57-17.184 28.088-36.937 36.986-58.407 10.174-24.551 15.407-50.865 15.407-77.442 0-26.574-5.233-52.891-15.407-77.442-10.174-24.548-25.082-46.855-43.877-65.641 0 0 0.003 0.003 0 0l-283.98-284.008c-9.601-9.598-22.625-14.995-36.2-14.995-13.578 0-26.599 5.394-36.2 14.992l-283.956 284.041c0 0 0-0.003 0 0-37.948 37.954-59.264 89.431-59.258 143.103 0.006 53.674 21.333 105.145 59.289 143.092s89.431 59.264 143.106 59.258c53.671-0.006 105.143-21.333 143.092-59.289l33.936-33.955 33.969 33.951c-0.003-0.004 0.003 0.003 0 0 18.786 18.796 41.101 33.718 65.652 43.891zM699.010 728.928c-20.4 0-40.597-4.020-59.442-11.829s-35.965-19.255-50.384-33.684l-67.268-67.233-67.188 67.228c-29.126 29.132-68.633 45.5-109.825 45.505-41.195 0.004-80.704-16.355-109.835-45.481s-45.5-68.631-45.505-109.826c-0.004-41.192 16.355-80.702 45.481-109.834l283.948-284.030c0.778-0.78 1.835-1.218 2.936-1.218 1.099 0 2.153 0.437 2.931 1.212l283.98 284.008c14.425 14.419 25.874 31.542 33.681 50.386 7.805 18.842 11.823 39.037 11.823 59.431 0 20.397-4.019 40.592-11.823 59.434-7.807 18.842-19.251 35.962-33.676 50.379l-1.835 1.833c-14.029 13.585-30.504 24.406-48.56 31.889-18.844 7.809-39.042 11.829-59.439 11.829z" />
<glyph unicode="&#xe913;" glyph-name="food_frozen" d="M524.526 809.858c6.025 0.008 11.848-2.168 16.392-6.125 4.542-3.957 7.497-9.426 8.317-15.395l0.199-3.388v-89.304l57.123 57.123c4.223 4.222 9.825 6.786 15.781 7.225s11.87-1.276 16.666-4.834l2.79-2.424c4.215-4.222 6.772-9.815 7.212-15.763 0.437-5.948-1.273-11.856-4.821-16.651l-2.391-2.79-92.326-92.327-0.033-145.795 126.268 72.867 33.809 126.132c1.611 6.093 5.469 11.349 10.799 14.709s11.737 4.575 17.928 3.4c6.188-1.175 11.704-4.653 15.432-9.732 3.731-5.081 5.394-11.382 4.661-17.64l-0.664-3.62-20.923-78.045 77.348 44.699c5.471 3.18 11.948 4.157 18.114 2.734 6.163-1.423 11.557-5.139 15.083-10.392 3.526-5.256 4.918-11.654 3.897-17.898s-4.381-11.867-9.396-15.725l-2.79-1.89-77.315-44.635 77.979-20.923c5.757-1.553 10.766-5.117 14.117-10.046 3.352-4.932 4.824-10.899 4.149-16.821l-0.664-3.656c-1.553-5.762-5.12-10.774-10.057-14.126-4.937-3.354-10.915-4.821-16.843-4.14l-3.587 0.664-126.135 33.809-126.301-72.865 126.268-72.928 126.168 33.806c6.089 1.672 12.584 0.966 18.172-1.968 5.59-2.936 9.855-7.885 11.934-13.846 2.081-5.961 1.821-12.49-0.731-18.263-2.549-5.776-7.196-10.367-13.002-12.85l-3.487-1.196-78.045-20.923 77.381-44.635c5.491-3.147 9.576-8.264 11.43-14.314 1.852-6.050 1.334-12.579-1.453-18.26-2.784-5.682-7.63-10.091-13.547-12.33s-12.465-2.142-18.316 0.271l-3.022 1.461-77.315 44.633 20.856-77.976c1.547-5.765 0.971-11.892-1.619-17.267-2.59-5.377-7.024-9.645-12.496-12.025l-3.487-1.229c-5.768-1.544-11.898-0.966-17.275 1.63-5.375 2.596-9.639 7.038-12.017 12.518l-1.229 3.487-33.775 126.099-126.301 72.964v-145.826l92.326-92.326c4.47-4.439 7.088-10.406 7.334-16.7s-1.901-12.446-6.008-17.22c-4.11-4.774-9.875-7.816-16.135-8.508-6.26-0.695-12.548 1.007-17.604 4.763l-2.79 2.424-57.123 57.125v-89.337c-0.003-6.313-2.399-12.388-6.709-16.998-4.306-4.611-10.204-7.414-16.5-7.846-6.296-0.429-12.523 1.547-17.416 5.53-4.896 3.983-8.098 9.675-8.959 15.927l-0.232 3.388v89.271l-57.123-57.059c-4.218-4.218-9.808-6.781-15.756-7.226-5.95-0.446-11.859 1.259-16.658 4.802l-2.79 2.424c-4.218 4.218-6.783 9.811-7.229 15.759-0.443 5.948 1.262 11.859 4.804 16.658l2.424 2.79 92.326 92.326v145.826l-126.234-72.895-33.809-126.135c-1.611-6.094-5.469-11.35-10.799-14.71s-11.737-4.575-17.926-3.399c-6.191 1.173-11.707 4.652-15.435 9.731-3.731 5.081-5.394 11.383-4.661 17.64l0.664 3.623 20.923 78.043-77.348-44.699c-5.473-3.23-11.971-4.243-18.167-2.837s-11.62 5.126-15.163 10.401c-3.543 5.275-4.936 11.701-3.895 17.97s4.437 11.901 9.494 15.745l2.823 1.893 77.314 44.635-77.979 20.923c-5.762 1.547-10.779 5.109-14.137 10.038-3.358 4.932-4.835 10.904-4.162 16.832l0.664 3.65c1.552 5.765 5.122 10.777 10.059 14.128 4.937 3.354 10.914 4.821 16.842 4.14l3.653-0.667 126.101-33.806 126.268 72.895-126.234 72.898-126.168-33.809c-6.088-1.669-12.584-0.966-18.172 1.971s-9.855 7.885-11.934 13.846c-2.080 5.961-1.819 12.49 0.731 18.263 2.549 5.776 7.197 10.367 13.003 12.85l3.487 1.196 78.045 20.923-77.381 44.635c-5.49 3.147-9.576 8.264-11.429 14.314s-1.334 12.579 1.452 18.26c2.786 5.682 7.629 10.091 13.547 12.33s12.466 2.142 18.316-0.268l3.022-1.464 77.314-44.635-20.856 77.982c-1.547 5.762-0.971 11.889 1.619 17.264 2.59 5.377 7.024 9.644 12.496 12.026l3.487 1.229c5.768 1.544 11.898 0.965 17.275-1.632 5.375-2.597 9.639-7.038 12.017-12.517l1.229-3.487 33.775-126.099 126.268-72.934v145.798l-92.326 92.325c-4.514 4.432-7.171 10.415-7.436 16.735-0.263 6.32 1.887 12.504 6.017 17.296s9.927 7.834 16.215 8.508c6.291 0.674 12.601-1.070 17.652-4.878l2.79-2.424 57.123-57.089v89.304c0 6.606 2.624 12.941 7.295 17.613s11.007 7.295 17.613 7.295h-0.033z" />
<glyph unicode="&#xe914;" glyph-name="food_normal" d="M517.524 618.897c-96.295 0-174.357-78.062-174.357-174.357s78.062-174.357 174.357-174.357c96.295 0 174.357 78.062 174.357 174.357s-78.062 174.357-174.357 174.357zM293.351 444.541c0 123.807 100.366 224.173 224.173 224.173s224.173-100.366 224.173-224.173c0-123.807-100.366-224.173-224.173-224.173s-224.173 100.366-224.173 224.173zM517.524 834.767c13.758 0 24.908-11.152 24.908-24.908v-66.422c0-13.756-11.151-24.908-24.908-24.908-13.755 0-24.908 11.152-24.908 24.908v66.422c0 13.756 11.153 24.908 24.908 24.908zM241.598 720.466c9.727 9.727 25.498 9.727 35.225 0l46.96-46.959c9.728-9.728 9.728-25.498 0-35.226s-25.498-9.728-35.226 0l-46.96 46.96c-9.727 9.727-9.727 25.498 0 35.225zM793.451 720.466c9.728-9.727 9.728-25.498 0-35.225l-46.96-46.96c-9.728-9.728-25.498-9.728-35.226 0s-9.728 25.498 0 35.226l46.96 46.959c9.728 9.727 25.498 9.727 35.226 0zM127.297 444.541c0 13.755 11.152 24.908 24.908 24.908h66.422c13.756 0 24.908-11.153 24.908-24.908 0-13.758-11.152-24.908-24.908-24.908h-66.422c-13.756 0-24.908 11.151-24.908 24.908zM791.513 444.541c0 13.755 11.153 24.908 24.908 24.908h66.422c13.758 0 24.908-11.153 24.908-24.908 0-13.758-11.151-24.908-24.908-24.908h-66.422c-13.755 0-24.908 11.151-24.908 24.908zM323.783 250.8c9.728-9.728 9.728-25.498 0-35.226l-46.96-46.96c-9.727-9.728-25.498-9.728-35.225 0s-9.727 25.498 0 35.226l46.96 46.96c9.728 9.725 25.498 9.725 35.226 0zM711.265 250.8c9.728 9.725 25.498 9.725 35.226 0l46.96-46.96c9.728-9.728 9.728-25.498 0-35.226s-25.498-9.728-35.226 0l-46.96 46.96c-9.728 9.728-9.728 25.498 0 35.226zM517.524 170.551c13.758 0 24.908-11.153 24.908-24.908v-66.422c0-13.758-11.151-24.908-24.908-24.908-13.755 0-24.908 11.151-24.908 24.908v66.422c0 13.755 11.153 24.908 24.908 24.908z" />
<glyph unicode="&#xe915;" glyph-name="food_refrigerated" d="M520.317 814.095c-7.281 0-14.195-3.184-18.927-8.716-84.95-99.301-149.327-186.263-192.589-260.732-42.905-73.853-66.691-138.163-66.691-191.452 0-73.783 29.311-144.547 81.484-196.721s122.938-81.485 196.721-81.485h0.006c73.778 0.011 144.531 29.325 196.697 81.499 52.166 52.171 81.472 122.93 81.472 196.708 0 53.29-23.784 117.599-66.685 191.452-43.26 74.47-107.625 161.429-192.559 260.73-4.733 5.532-11.649 8.718-18.927 8.718zM520.311 124.803c-60.571 0.003-118.662 24.064-161.493 66.895s-66.895 100.925-66.895 161.496c0 39.966 18.426 94.95 59.951 166.428 38.010 65.425 94.014 142.4 168.44 231.041 74.412-88.639 130.408-165.613 168.412-231.038 41.522-71.481 59.946-126.464 59.946-166.43 0-60.568-24.058-118.654-66.881-161.485-42.825-42.831-100.908-66.898-161.476-66.906zM646.947 404.040c13.755 0 24.908-11.151 24.908-24.908 0-19.899-3.919-39.607-11.535-57.992s-18.778-35.093-32.851-49.163c-14.070-14.073-30.778-25.235-49.163-32.851-18.385-7.614-38.090-11.535-57.992-11.535-13.758 0-24.908 11.153-24.908 24.908 0 13.758 11.151 24.908 24.908 24.908 13.359 0 26.585 2.632 38.929 7.744 12.341 5.112 23.555 12.606 33 22.052s16.94 20.66 22.052 33c5.112 12.343 7.744 25.57 7.744 38.929 0 13.758 11.151 24.908 24.908 24.908z" />
<glyph unicode="&#xe916;" glyph-name="location" d="M512.174 765.155c-63.792 0-124.971-25.341-170.078-70.449-45.107-45.106-70.448-106.288-70.448-170.077 0-93.804 61.070-192.546 126.686-270.635 32.29-38.428 64.649-70.65 88.954-93.278 9.816-9.136 18.293-16.683 24.886-22.414 6.593 5.732 15.070 13.278 24.886 22.414 24.306 22.628 56.664 54.849 88.954 93.278 65.616 78.089 126.686 176.831 126.686 270.635 0 63.79-25.341 124.971-70.448 170.077s-106.286 70.449-170.078 70.449zM512.174 106.667l15.118-18.87c-8.835-7.077-21.402-7.077-30.236 0l15.118 18.87zM307.903 728.899c54.175 54.176 127.656 84.612 204.271 84.612s150.096-30.436 204.271-84.612c54.175-54.177 84.611-127.654 84.611-204.27 0-112.080-71.282-222.319-138.018-301.742-33.886-40.326-67.703-73.99-93.030-97.564-12.678-11.802-23.27-21.111-30.729-27.503-3.732-3.197-6.682-5.666-8.721-7.353-1.021-0.845-1.815-1.493-2.364-1.94l-0.873-0.706c-0.006-0.006-0.028-0.026-15.147 18.844-15.118-18.87-15.113-18.876-15.118-18.87l-0.082 0.068-0.819 0.663c-0.549 0.447-1.343 1.095-2.364 1.94-2.039 1.687-4.989 4.156-8.721 7.353-7.461 6.391-18.051 15.701-30.729 27.503-25.327 23.575-59.145 57.239-93.030 97.564-66.736 79.423-138.018 189.662-138.018 301.742 0 76.615 30.436 150.093 84.611 204.27zM509.505 584.846c-30.382 0-55.012-24.63-55.012-55.012s24.63-55.012 55.012-55.012c30.382 0 55.012 24.63 55.012 55.012s-24.63 55.012-55.012 55.012zM406.138 529.835c0 57.088 46.279 103.367 103.367 103.367s103.367-46.279 103.367-103.367c0-57.088-46.279-103.367-103.367-103.367s-103.367 46.279-103.367 103.367z" />
<glyph unicode="&#xe917;" glyph-name="lock" horiz-adv-x="996" d="M725.050 190.813c-0.017-2.424-0.991-4.746-2.709-6.457-1.719-1.713-4.043-2.676-6.471-2.687h-340.563c-2.427 0.011-4.752 0.974-6.471 2.687-1.719 1.71-2.693 4.032-2.712 6.457v254.597c0 5.054 4.165 9.18 9.183 9.18h340.527c5.126 0 9.252-4.126 9.252-9.18l-0.036-254.597zM463.233 523.087c0.028 21.515 8.588 42.139 23.804 57.35s35.846 23.762 57.361 23.782c21.515-0.011 42.15-8.56 57.369-23.771 15.219-15.213 23.776-35.843 23.796-57.361v-34.442h-162.329v34.442zM715.87 488.644h-56.22v34.442c-0.039 30.557-12.199 59.849-33.814 81.444-21.617 21.595-50.92 33.731-81.474 33.739-30.526-0.047-59.791-12.199-81.369-33.792s-33.715-50.862-33.742-81.391v-34.442h-53.943c-23.843 0-43.199-19.392-43.199-43.235v-254.597c0-23.804 19.392-43.196 43.199-43.196h340.527c23.879 0 43.271 19.392 43.271 43.196v254.597c0 23.843-19.392 43.235-43.235 43.235zM510.027 346.488c0-12.205 6.548-22.489 15.941-28.893v-47.325h39.25v47.325c4.829 3.136 8.812 7.412 11.599 12.449 2.787 5.040 4.29 10.688 4.376 16.445 0 9.437-3.747 18.487-10.42 25.16-6.675 6.673-15.725 10.423-25.163 10.423s-18.487-3.75-25.16-10.423c-6.673-6.673-10.423-15.723-10.423-25.16z" />
<glyph unicode="&#xe918;" glyph-name="menu" horiz-adv-x="996" d="M276.757 638.27h442.811v-47.049h-442.811v47.049zM276.757 468.065h442.811v-47.049h-442.811v47.049zM276.757 297.859h442.811v-47.049h-442.811v47.049z" />
<glyph unicode="&#xe919;" glyph-name="minus" d="M680.811 491.589v-66.422h-332.108v66.422h332.108z" />
<glyph unicode="&#xe91a;" glyph-name="notice" d="M179.892 444.541c0 183.418 148.69 332.108 332.108 332.108s332.108-148.69 332.108-332.108c0-183.418-148.69-332.108-332.108-332.108s-332.108 148.69-332.108 332.108zM512 748.973c-168.132 0-304.432-136.3-304.432-304.432s136.3-304.432 304.432-304.432c168.132 0 304.432 136.3 304.432 304.432s-136.3 304.432-304.432 304.432zM512 596.757c15.285 0 27.676-12.39 27.676-27.676v-152.216c0-15.285-12.39-27.676-27.676-27.676s-27.676 12.39-27.676 27.676v152.216c0 15.285 12.39 27.676 27.676 27.676zM512 347.676c15.285 0 27.676-12.39 27.676-27.676s-12.39-27.676-27.676-27.676c-15.285 0-27.676 12.39-27.676 27.676s12.39 27.676 27.676 27.676z" />
<glyph unicode="&#xe91b;" glyph-name="plus" d="M545.211 624.432v-132.843h132.843v-66.422h-132.843v-132.843h-66.422v132.843h-132.843v66.422h132.843v132.843h66.422z" />
<glyph unicode="&#xe91c;" glyph-name="question" d="M849.635 444.541c0-183.418-148.69-332.108-332.108-332.108s-332.108 148.69-332.108 332.108c0 183.418 148.69 332.108 332.108 332.108s332.108-148.69 332.108-332.108zM639.078 446.035c0 67.971-55.075 123.046-123.046 123.046s-123.046-55.102-123.046-123.046c0-67.971 55.102-123.046 123.046-123.046 25.102 0 48.432 7.5 67.888 20.397l23.331-23.386 34.816 34.816-23.386 23.331c12.897 19.456 20.397 42.787 20.397 67.888zM442.194 446.035c0 40.766 33.072 73.839 73.839 73.839s73.839-33.072 73.839-73.839c0-11.402-2.602-22.196-7.196-31.827l-10.212 10.212-34.816-34.788 10.212-10.24c-9.631-4.594-20.425-7.196-31.827-7.196-40.766 0-73.839 33.072-73.839 73.839z" />
<glyph unicode="&#xe91d;" glyph-name="help" d="M421.459 515.385h50.223c1.71 26.073 19.448 42.742 47.015 42.742 26.928 0 44.879-16.027 44.879-38.253 0-19.395-7.542-30.529-29.209-44.594l-6.266-3.919c-29.491-17.311-41.887-36.546-39.964-68.602l0.213-14.532h49.581v12.183c0 21.158 7.907 32.057 35.904 48.513 29.065 17.311 45.308 40.177 45.308 72.876 0 47.231-39.111 80.996-97.667 80.996-63.471 0-98.307-36.756-100.017-87.408zM515.493 286.288c-21.371 0-35.477 13.461-35.477 33.98 0 20.729 14.106 34.193 35.477 34.193 21.797 0 35.477-13.464 35.477-34.193 0-20.519-13.68-33.98-35.477-33.98zM520.297 665.946c-122.279 0-221.405-99.126-221.405-221.405s99.126-221.405 221.405-221.405c122.279 0 221.405 99.126 221.405 221.405s-99.126 221.405-221.405 221.405zM243.54 444.541c0 152.847 123.91 276.757 276.757 276.757 152.85 0 276.757-123.91 276.757-276.757s-123.907-276.757-276.757-276.757c-152.847 0-276.757 123.91-276.757 276.757z" />
<glyph unicode="&#xe91e;" glyph-name="refresh" d="M523.068 223.135c-56.58 0-105.882 18.761-147.899 56.287-42.034 37.506-66.125 84.347-72.278 140.518h50.433c5.74-42.64 24.698-77.901 56.876-105.782 32.192-27.88 69.815-41.821 112.867-41.821 47.97 0 88.662 16.711 122.069 50.134 33.424 33.407 50.134 74.099 50.134 122.069s-16.711 88.67-50.134 122.094c-33.407 33.407-74.099 50.11-122.069 50.11-28.29 0-54.737-6.559-79.338-19.68s-45.305-31.16-62.115-54.12h67.65v-49.202h-147.603v147.603h49.202v-57.812c20.909 26.242 46.437 46.537 76.581 60.886 30.128 14.35 62.002 21.526 95.622 21.526 30.75 0 59.558-5.84 86.423-17.516 26.845-11.693 50.218-27.479 70.111-47.356 19.877-19.893 35.663-43.265 47.356-70.111 11.676-26.865 17.516-55.672 17.516-86.423s-5.84-59.55-17.516-86.398c-11.693-26.862-27.479-50.234-47.356-70.111-19.893-19.893-43.265-35.688-70.111-47.381-26.865-11.676-55.672-17.516-86.423-17.516z" />
<glyph unicode="&#xe91f;" glyph-name="search" d="M321.312 641.445c40.052 40.054 94.374 62.555 151.018 62.555 28.047 0 55.819-5.524 81.732-16.257 25.91-10.733 49.456-26.466 69.289-46.298 19.83-19.83 35.563-43.376 46.296-69.286 10.733-25.913 16.257-53.685 16.257-81.732s-5.524-55.819-16.257-81.732c-7.741-18.684-18.081-36.139-30.681-51.859 0.708-0.562 1.395-1.171 2.051-1.827l114.021-114.024c9.188-9.186 9.188-24.081 0-33.266-9.186-9.188-24.081-9.188-33.266 0l-114.024 114.024c-0.656 0.653-1.265 1.34-1.827 2.048-15.72-12.601-33.175-22.94-51.859-30.681-25.913-10.733-53.685-16.257-81.732-16.257-56.644 0-110.966 22.5-151.018 62.555-40.055 40.052-62.555 94.374-62.555 151.018s22.5 110.966 62.555 151.018zM472.33 656.951c-44.165 0-86.52-17.544-117.752-48.773-31.229-31.229-48.773-73.587-48.773-117.752s17.544-86.522 48.773-117.752c31.232-31.229 73.587-48.773 117.752-48.773 21.869 0 43.523 4.306 63.726 12.675s38.561 20.635 54.026 36.097c15.462 15.465 27.728 33.822 36.097 54.026s12.675 41.857 12.675 63.726c0 21.869-4.306 43.523-12.675 63.726s-20.635 38.561-36.097 54.026c-15.465 15.462-33.822 27.728-54.026 36.097s-41.857 12.675-63.726 12.675z" />
<glyph unicode="&#xe920;" glyph-name="time" d="M514.756 57.081c213.988 0 387.459 173.471 387.459 387.459s-173.471 387.459-387.459 387.459c-213.988 0-387.459-173.471-387.459-387.459s173.471-387.459 387.459-387.459zM514.754 637.053c15.285 0 27.676-12.39 27.676-27.676v-166.054c0-6.197-2.034-11.917-5.477-16.531-1.118-1.735-2.449-3.371-3.994-4.871l-119.122-115.69c-10.962-10.65-28.484-10.395-39.133 0.57s-10.395 28.487 0.57 39.136l111.804 108.586v154.854c0 15.285 12.393 27.676 27.676 27.676z" />
<glyph unicode="&#xe921;" glyph-name="triangle_bottom" horiz-adv-x="996" d="M498.162 214.451l-332.108 460.18h664.216l-332.108-460.18z" />
<glyph unicode="&#xe922;" glyph-name="triangle_top" horiz-adv-x="996" d="M498.162 674.631l332.108-460.18h-664.216l332.108 460.18z" />
</font>
</defs>
</svg>
